<svg width="300" height="50" viewBox="0 0 300 50" fill="none" xmlns="http://www.w3.org/2000/svg">
<g clip-path="url(#clip0_3158_4589)">
<path d="M21.1861 0C24.3491 0 27.2903 0.501447 30.0289 1.51398C32.758 2.51688 35.1205 4.0405 37.107 6.04629C39.1032 8.07136 40.6557 10.5882 41.7936 13.6162C42.9219 16.6442 43.4812 20.1929 43.4812 24.2719C43.4812 27.8496 43.0183 31.1572 42.1022 34.1755C41.1861 37.2035 39.7975 39.8168 37.9364 42.0154C36.0849 44.2141 33.7608 45.9499 30.9932 47.2131C28.216 48.4667 24.9566 49.0935 21.1958 49.0935H0V0H21.1861ZM20.4243 40.0289C21.9865 40.0289 23.4908 39.7686 24.9662 39.2671C26.432 38.7657 27.7435 37.9267 28.891 36.7502C30.0289 35.5834 30.9547 34.0598 31.6393 32.1794C32.3337 30.2989 32.6808 28.0039 32.6808 25.3038C32.6808 22.8255 32.4397 20.5979 31.9576 18.6017C31.4754 16.6056 30.6847 14.8987 29.5853 13.4812C28.486 12.0636 27.0299 10.974 25.2266 10.2122C23.4137 9.45034 21.1765 9.07425 18.5149 9.07425H10.81V40.0289H20.4339H20.4243Z" fill="#FFFFFF"/>
<path d="M47.7243 18.7749C48.7368 17.2609 50.0193 16.0555 51.5719 15.1394C53.1341 14.2137 54.8892 13.5676 56.8274 13.1722C58.785 12.7865 60.7426 12.584 62.7098 12.584C64.4938 12.584 66.3164 12.719 68.1486 12.9601C69.9808 13.2108 71.6587 13.7026 73.163 14.4355C74.677 15.1684 75.921 16.1905 76.8757 17.502C77.84 18.8038 78.3125 20.5396 78.3125 22.6901V41.1954C78.3125 42.8058 78.4089 44.339 78.5922 45.8048C78.7754 47.2706 79.0936 48.3699 79.5565 49.1028H69.6433C69.46 48.5531 69.3154 47.9938 69.1997 47.4152C69.084 46.8463 69.0068 46.258 68.9586 45.6602C67.3964 47.2706 65.5642 48.3988 63.4523 49.0353C61.3501 49.6717 59.19 49.99 56.9914 49.99C55.2942 49.99 53.7127 49.7875 52.2469 49.3728C50.7812 48.9678 49.4986 48.3217 48.3993 47.4538C47.3 46.5859 46.4417 45.4866 45.8149 44.1558C45.1977 42.8251 44.8892 41.2436 44.8892 39.4114C44.8892 37.3959 45.246 35.7277 45.9596 34.4258C46.6635 33.1144 47.5893 32.0729 48.7079 31.2918C49.8265 30.5107 51.109 29.9225 52.5555 29.5367C54.002 29.151 55.4581 28.8424 56.9239 28.611C58.3896 28.3795 59.8361 28.1963 61.2633 28.0613C62.6809 27.9167 63.9441 27.7142 65.0435 27.4442C66.1428 27.1645 67.0203 26.7691 67.6568 26.2388C68.3029 25.7084 68.5921 24.9466 68.5536 23.934C68.5536 22.8733 68.38 22.044 68.0329 21.4268C67.6857 20.8 67.2325 20.3275 66.6635 19.9803C66.0849 19.6332 65.4195 19.4017 64.6674 19.286C63.9056 19.1703 63.0955 19.1124 62.218 19.1124C60.2894 19.1124 58.7754 19.5271 57.676 20.3468C56.5767 21.1761 55.9403 22.5454 55.757 24.4741H45.9885C46.1235 22.179 46.6924 20.2889 47.705 18.7653M67.001 32.5551C66.3839 32.7576 65.7185 32.9408 65.0049 33.0661C64.2913 33.2108 63.5488 33.3169 62.7677 33.4133C61.9962 33.5097 61.2055 33.6158 60.434 33.7605C59.7011 33.8955 58.9779 34.0787 58.2643 34.3198C57.5507 34.5416 56.9335 34.8598 56.4128 35.2455C55.8824 35.6409 55.4581 36.1327 55.1399 36.7209C54.8217 37.3188 54.6577 38.071 54.6577 38.9967C54.6577 39.8646 54.8217 40.5975 55.1399 41.1954C55.4581 41.7932 55.8921 42.2561 56.4417 42.6033C56.9914 42.9408 57.6375 43.1819 58.3704 43.3265C59.1032 43.4615 59.8554 43.529 60.6365 43.529C62.5555 43.529 64.0502 43.2108 65.1013 42.5647C66.1621 41.9186 66.9335 41.1568 67.4446 40.26C67.9461 39.3632 68.2546 38.4567 68.3704 37.5406C68.4861 36.6245 68.5439 35.8916 68.5439 35.3419V31.6968C68.1293 32.0633 67.6182 32.3525 67.001 32.5551Z" fill="#FFFFFF"/>
<path d="M91.2922 49.1033L79.1128 13.5488H89.3635L96.8659 37.8304H96.9913L104.494 13.5488H114.195L102.15 49.1033H91.2922Z" fill="#FFFFFF"/>
<path d="M116.403 0H126.172V8.05207H116.403V0ZM126.172 49.1032H116.403V13.5487H126.172V49.1032Z" fill="#FFFFFF"/>
<path d="M139.586 40.2697C140.02 41.0315 140.579 41.6391 141.273 42.1309C141.958 42.613 142.749 42.9602 143.645 43.1916C144.542 43.4231 145.468 43.5388 146.432 43.5388C147.117 43.5388 147.84 43.4616 148.592 43.2977C149.344 43.1338 150.039 42.883 150.656 42.5359C151.273 42.1984 151.784 41.7355 152.209 41.1666C152.614 40.5976 152.826 39.8744 152.826 39.0065C152.826 37.5407 151.852 36.4414 149.904 35.7085C147.956 34.966 145.246 34.2427 141.755 33.5099C140.338 33.182 138.949 32.8059 137.589 32.372C136.239 31.938 135.034 31.3594 133.973 30.6458C132.922 29.9322 132.074 29.0451 131.427 27.965C130.791 26.885 130.463 25.5735 130.463 24.0113C130.463 21.7162 130.916 19.8358 131.804 18.37C132.691 16.9043 133.877 15.7471 135.343 14.8985C136.808 14.0499 138.457 13.452 140.299 13.1145C142.122 12.7673 144.012 12.5938 145.94 12.5938C147.869 12.5938 149.74 12.777 151.553 13.1531C153.366 13.5195 154.976 14.1367 156.394 15.0046C157.821 15.8821 158.997 17.0296 159.933 18.4761C160.878 19.9226 161.437 21.7451 161.62 23.9438H152.344C152.199 22.0634 151.485 20.7905 150.212 20.1251C148.93 19.4597 147.416 19.1222 145.67 19.1222C145.121 19.1222 144.523 19.1608 143.886 19.2283C143.24 19.2958 142.652 19.4501 142.131 19.6719C141.601 19.9033 141.157 20.2312 140.781 20.6748C140.415 21.1087 140.232 21.6969 140.232 22.4298C140.232 23.2977 140.55 24.0113 141.196 24.561C141.842 25.1106 142.681 25.5542 143.703 25.9014C144.735 26.2485 145.921 26.5571 147.252 26.8271C148.583 27.0971 149.933 27.3961 151.302 27.7239C152.72 28.0422 154.108 28.4375 155.458 28.9004C156.818 29.3536 158.023 29.9612 159.074 30.7133C160.135 31.4751 160.974 32.4202 161.62 33.5388C162.257 34.6574 162.575 36.046 162.575 37.695C162.575 40.0383 162.102 41.9959 161.167 43.5774C160.222 45.1588 159.007 46.4317 157.483 47.3961C155.969 48.3604 154.243 49.0354 152.295 49.4211C150.347 49.8069 148.371 50.0094 146.345 50.0094C144.32 50.0094 142.266 49.8069 140.299 49.3922C138.322 48.9872 136.577 48.2929 135.034 47.3382C133.501 46.3835 132.237 45.0913 131.254 43.5195C130.261 41.938 129.73 39.9515 129.634 37.56H138.92C138.92 38.6208 139.132 39.5272 139.576 40.2794" fill="#FFFFFF"/>
<path d="M211.013 23.6256C211.881 21.3112 213.115 19.344 214.735 17.7143C216.336 16.0942 218.264 14.831 220.511 13.9342C222.748 13.0373 225.285 12.5938 228.071 12.5938C230.858 12.5938 233.414 13.0373 235.67 13.9342C237.946 14.831 239.875 16.0942 241.485 17.7143C243.096 19.344 244.33 21.3208 245.207 23.6256C246.075 25.9399 246.509 28.5147 246.509 31.3691C246.509 34.2234 246.075 36.7789 245.207 39.074C244.33 41.3691 243.096 43.3266 241.485 44.9563C239.875 46.5764 237.946 47.83 235.67 48.6979C233.404 49.5754 230.868 49.9997 228.071 49.9997C225.275 49.9997 222.748 49.5658 220.511 48.6979C218.264 47.83 216.336 46.5764 214.735 44.9563C213.124 43.3266 211.881 41.3691 211.013 39.074C210.145 36.7789 209.701 34.2138 209.701 31.3691C209.701 28.5243 210.135 25.9496 211.013 23.6256ZM219.884 35.5253C220.164 36.8753 220.627 38.0904 221.292 39.1704C221.958 40.2504 222.845 41.1087 223.944 41.7451C225.043 42.3816 226.413 42.7095 228.062 42.7095C229.711 42.7095 231.099 42.3912 232.228 41.7451C233.356 41.1087 234.243 40.2504 234.908 39.1704C235.574 38.0904 236.037 36.8753 236.326 35.5253C236.596 34.1752 236.731 32.7866 236.731 31.3594C236.731 29.9322 236.596 28.534 236.326 27.1646C236.037 25.7856 235.574 24.5706 234.908 23.5195C234.243 22.4684 233.356 21.6101 232.228 20.9448C231.099 20.2794 229.72 19.9419 228.062 19.9419C226.403 19.9419 225.043 20.2697 223.944 20.9448C222.845 21.6101 221.958 22.4684 221.292 23.5195C220.627 24.5706 220.164 25.7856 219.884 27.1646C219.614 28.534 219.47 29.9419 219.47 31.3594C219.47 32.777 219.614 34.1656 219.884 35.5253Z" fill="#FFFFFF"/>
<path d="M259.778 0H250.02V49.1032H259.778V0Z" fill="#FFFFFF"/>
<path d="M274.513 0V26.3452L286.827 13.5487H298.38L284.966 26.6249L299.894 49.1032H288.062L278.293 33.2208L274.513 36.866V49.1032H264.754V0H274.513Z" fill="#FFFFFF"/>
<path d="M193.095 0C196.152 0 198.756 0.443587 200.897 1.33076C203.038 2.21794 204.783 3.39441 206.123 4.85053C207.473 6.30665 208.457 7.96528 209.065 9.83607C209.682 11.7068 209.99 13.6451 209.99 15.6509C209.99 17.6567 209.682 19.5371 209.065 21.4272C208.457 23.3173 207.473 24.9952 206.123 26.4609C204.783 27.9171 203.038 29.0935 200.897 29.9807C198.746 30.8679 196.152 31.3115 193.095 31.3115H183.674V49.1032H172.883V0H193.105H193.095ZM190.154 22.9508C191.389 22.9508 192.575 22.864 193.713 22.6808C194.851 22.4976 195.863 22.1504 196.721 21.6201C197.589 21.0993 198.283 20.3568 198.814 19.4021C199.335 18.4474 199.605 17.1938 199.605 15.6413C199.605 14.0887 199.335 12.8351 198.814 11.8804C198.283 10.9257 197.599 10.1832 196.721 9.65285C195.863 9.13211 194.851 8.77531 193.713 8.59209C192.575 8.40887 191.389 8.32208 190.154 8.32208H183.674V22.9605H190.154V22.9508Z" fill="#FFFFFF"/>
</g>
<defs>
<clipPath id="clip0_3158_4589">
<rect width="299.894" height="50" fill="white"/>
</clipPath>
</defs>
</svg>
